<svg xmlns="http://www.w3.org/2000/svg" viewBox="0 0 32 32" fill="none">
  <defs>
    <linearGradient id="grad" x1="0%" y1="0%" x2="100%" y2="100%">
      <stop offset="0%" style="stop-color:#6366f1"/>
      <stop offset="100%" style="stop-color:#8b5cf6"/>
    </linearGradient>
  </defs>
  <rect width="32" height="32" rx="8" fill="url(#grad)"/>
  <path d="M16 8C11.582 8 8 11.582 8 16C8 20.418 11.582 24 16 24C20.418 24 24 20.418 24 16C24 11.582 20.418 8 16 8ZM17 20V21H15V20H17ZM17 19V17H15V19H17ZM17 15V13H15V15H17ZM13 16H11V17H13V16ZM14.5 11C14.5 10.172 13.828 9.5 13 9.5C12.172 9.5 11.5 10.172 11.5 11C11.5 11.828 12.172 12.5 13 12.5C13.828 12.5 14.5 11.828 14.5 11ZM18.5 11C18.5 10.172 17.828 9.5 17 9.5C16.172 9.5 15.5 10.172 15.5 11C15.5 11.828 16.172 12.5 17 12.5C17.828 12.5 18.5 11.828 18.5 11ZM20 16H21V18H20V16Z" fill="white"/>
</svg>
